# xmcd CD database file
#
# Track frame offsets:
#	150
#	26721
#	55728
#	79422
#	107008
#	130848
#	135524
#	163930
#	190819
#	198047
#	221946
#	263321
#
# Disc length: 3919 seconds
#
# Revision: 0
# Processed by: cddbd v1.5.2PL0 Copyright (c) Steve Scherf et al.
# Submitted via: CDex 1.70beta2
#
DISCID=a50f4d0c
DTITLE=Jenny Robson - Butterfly Life
DYEAR=2006
DGENRE=Jazz
TTITLE0=Intimate With Ice
TTITLE1=Riddle With Utter Lies
TTITLE2=A Brand New Day
TTITLE3=Butterfly Life
TTITLE4=The Sound of Bambo Swaying
TTITLE5=Birds
TTITLE6=Tortuquero
TTITLE7=Costa Rica Connection
TTITLE8=Uni (intro)
TTITLE9=Unen rajalla
TTITLE10=Hevenly Place
TTITLE11=Danza de las Mariposas
EXTD=YEAR: 2006
EXTT0=
EXTT1=
EXTT2=
EXTT3=
EXTT4=
EXTT5=
EXTT6=
EXTT7=
EXTT8=
EXTT9=
EXTT10=
EXTT11=
PLAYORDER=
